<svg xmlns="http://www.w3.org/2000/svg" width="155" height="155" viewBox="0 0 41.01043 41.010419"><path d="M0 0c31.723 0 57.441 25.717 57.441 57.439S31.723 114.879 0 114.879c-31.721 0-57.439-25.718-57.439-57.44C-57.439 25.717-31.721 0 0 0" style="fill:#4ba651;fill-opacity:1;fill-rule:nonzero;stroke:none" transform="matrix(.35278 0 0 -.35278 152.309 -7.372)"/><path d="M217.215 525.064h2.165v-19.626h-2.165zm-4.148-18.732v8.317h-3.055v1.918h3.055v8.051h2.164v-18.286zm-9.276 17.417h5.508v-1.852h-5.508zm6.51-14.698c-1.135.469-3.277 2.61-3.722 4.149-.426-1.762-2.832-3.812-4.193-4.55l-1.694 1.517c2.742 1.427 4.659 3.79 4.659 6.935v.959h-3.546v1.919h9.478v-1.919h-3.5v-.959c0-1.515.49-4.482 3.856-6.444zm-13.881 1.807v7.672h-3.948v1.984h3.948v4.55h2.229v-14.206zm-12.066-4.972v6.266h2.23v-4.392h12.535v-1.874zm7.918 7.938c-1.941.691-3.792 2.297-4.951 3.948-.514-1.651-2.944-3.634-5.084-4.572l-1.674 1.673c5.062 2.052 5.575 5.263 5.575 6.557v.557h-4.148v1.873h10.682v-1.873h-4.125v-.557c0-1.161.69-4.194 5.04-5.843z" style="fill:#333132;fill-opacity:1;fill-rule:nonzero;stroke:none" transform="matrix(.35278 0 0 -.35278 81.357 149.452)"/><path d="M0 0v-8.098h3.01v-1.983H0v-9.545h-2.23V0Zm-14.875-16.214-1.673 1.317c5.865 2.629 7.985 7.827 8.23 10.815h-7.048v1.873h9.614c-.023-4.639-2.922-11.15-9.123-14.005m-5.633 9.345v-4.751h-2.229V0h2.229v-4.93h2.787v-1.939zm-2.229-7.562h-9.321v-3.1h9.321zm-11.553 1.874h13.781v-6.847H-34.29Zm3.013 1.739-5.018-.044v5.799h7.493v2.164h-7.493v1.849h9.722v-5.819h-7.515v-2.142l3.656.023c1.941.022 4.819.267 6.201.446v-1.808c-1.449-.2-4.525-.423-7.046-.468m-9.536 2.632v-6.311h-2.23V0h2.23v-6.29h2.743v-1.896ZM-54.55-19.179v5.776h2.207v-3.904h12.199v-1.872zm7.939 11.105h-2.208c.044.155.669 2.921.803 5.108h-8.587v1.872h10.996c-.044-1.383-.425-5.285-1.004-6.98m-8.72-3.858h-2.586v1.874h3.835v4.282h2.23v-4.282c1.561 0 6.179.289 8.05.579v-1.828c-2.787-.336-6.623-.625-11.529-.625" style="fill:#333132;fill-opacity:1;fill-rule:nonzero;stroke:none" transform="matrix(.35278 0 0 -.35278 161.776 -26.486)"/><path d="M0 0v-.5h-.5" style="fill:none;stroke:#232323;stroke-width:.3;stroke-linecap:round;stroke-linejoin:round;stroke-miterlimit:4;stroke-dasharray:none;stroke-opacity:1" transform="matrix(.35278 0 0 -.35278 254.675 220.135)"/><path d="M0 0h-.5v.5" style="fill:none;stroke:#232323;stroke-width:.3;stroke-linecap:round;stroke-linejoin:round;stroke-miterlimit:4;stroke-dasharray:none;stroke-opacity:1" transform="matrix(.35278 0 0 -.35278 -36.896 220.312)"/><path d="M0 0c31.723 0 57.438 25.716 57.438 57.439 0 31.721-25.715 57.438-57.438 57.438-31.723 0-57.438-25.717-57.438-57.438C-57.438 25.716-31.723 0 0 0" style="fill:#cc3335;fill-opacity:1;fill-rule:nonzero;stroke:none" transform="matrix(.35278 0 0 -.35278 20.581 40.846)"/><path d="M0 0v6.735h-5.643V8.54H0v1.763h-5.643v1.785H0v2.118h2.227V0Zm-11.821-4.972V.959h2.229V-3.1H2.672v-1.872zm2.698 7.826-4.86-.044v10.572h2.229v-8.7l2.652.046c2.655.043 5.51.379 7.026.691V3.591c-1.293-.289-4.08-.693-7.047-.737m-24.32-.446-1.561 1.628c6.713 2.276 7.604 6.133 7.604 7.985v1.561h2.364v-1.561c0-1.852 1.138-5.798 7.603-7.985l-1.559-1.628c-3.012.869-6.244 3.749-7.227 5.909-.869-2.408-4.302-5.04-7.224-5.909m-2.586-5.397v1.873h8.695V3.12h2.188v-4.236h8.741v-1.873zm-4.362 5.086v4.705h-3.925v1.806h3.925v5.598h2.231V2.097ZM-45.564.111c-3.055 0-4.862-.802-4.862-2.051 0-1.248 1.807-2.053 4.862-2.053 2.988 0 4.839.805 4.839 2.031 0 1.271-1.851 2.073-4.839 2.073m-6.98 14.095h6.2v-1.807h-6.2zM-38.139-1.94c0-2.208-2.519-3.792-7.402-3.792-4.885 0-7.473 1.584-7.473 3.792 0 2.206 2.567 3.767 7.428 3.767 4.904 0 7.447-1.561 7.447-3.767m-6.064 4.861c-1.629.267-4.35 1.941-5.24 3.347-.694-1.472-3.458-3.392-5.309-3.837l-1.45 1.672c4.794 1.561 5.509 4.214 5.509 4.997h-4.149v1.805h10.727V9.1h-4.17c0-.783 1.56-3.592 5.218-4.418z" style="fill:#fff;fill-opacity:1;fill-rule:nonzero;stroke:none" transform="matrix(.35278 0 0 -.35278 29.832 17.62)"/><path d="M0 0v-8.094h3.01v-1.985H0v-9.543h-2.232V0Zm-14.877-16.211-1.672 1.315c5.865 2.632 7.985 7.827 8.231 10.816h-7.048v1.874h9.611c-.022-4.637-2.921-11.15-9.122-14.005m-7.771 12.487h-10.08v-1.582h10.08zm-12.311-3.3v6.712h2.23v-1.827h10.081v1.827h2.23v-6.712zm6.09-3.078h-8.633v1.72h19.625v-1.72h-8.674v-1.627h6.133v-4.662h-12.2v-1.315h12.69V-19.4h-15.031v4.637h12.199v1.338h-12.199v1.696h6.09zm-12.147 3.236v-4.752h-2.229V0h2.229v-4.927h2.789v-1.939zm-2.229-7.563h-9.321v-3.099h9.321zm-11.552 1.876h13.781v-6.848h-13.781zm3.01 1.74-5.016-.046v5.797h7.493v2.164h-7.493v1.852h9.723v-5.82h-7.516v-2.142l3.658.022c1.939.021 4.816.267 6.198.446v-1.807c-1.448-.2-4.526-.423-7.047-.466m-9.533 2.63v-6.312h-2.231V0h2.231v-6.287h2.742v-1.896zm-13.737-10.995v5.777h2.208v-3.904h12.197v-1.873zm7.939 11.107h-2.209c.045.157.67 2.921.804 5.106h-8.585v1.874h10.993c-.045-1.382-.422-5.286-1.003-6.98m-8.72-3.859h-2.588v1.873h3.836v4.282h2.231v-4.282c1.562 0 6.177.291 8.05.581v-1.829c-2.789-.336-6.623-.625-11.529-.625" style="fill:#fff;fill-opacity:1;fill-rule:nonzero;stroke:none" transform="matrix(.35278 0 0 -.35278 33.968 21.903)"/><path d="M0 0c31.723 0 57.44 25.717 57.44 57.439 0 31.723-25.717 57.44-57.44 57.44-31.72 0-57.438-25.717-57.438-57.44C-57.438 25.717-31.72 0 0 0" style="fill:#35a5dd;fill-opacity:1;fill-rule:nonzero;stroke:none" transform="matrix(.35278 0 0 -.35278 208.737 30.77)"/><path d="M380.232 524.328h2.165v-19.625h-2.165zm-4.148-18.731v10.012h-3.123v2.007h3.123v6.266h2.165v-18.285zm-2.788 2.876c-1.428 1.115-3.477 3.657-3.945 5.418-.493-1.85-2.32-4.393-4.127-5.931l-1.807 1.338c3.457 2.253 4.773 6.065 4.773 10.146v3.301h2.34v-3.301c0-4.014 1.36-7.336 4.349-9.566z" style="fill:#333132;fill-opacity:1;fill-rule:nonzero;stroke:none" transform="matrix(.35278 0 0 -.35278 81.291 187.242)"/><path d="M0 0v-8.095h3.009v-1.984H0v-9.545h-2.232V0Zm-14.877-16.212-1.671 1.316c5.863 2.631 7.984 7.828 8.229 10.816h-7.048v1.872h9.614c-.024-4.638-2.923-11.149-9.124-14.004m-5.631 9.344v-4.75h-2.229V0h2.229v-4.927h2.786v-1.941zm-2.229-7.56h-9.322v-3.1h9.322zm-11.554 1.873h13.782v-6.848h-13.782zm3.012 1.74-5.017-.045v5.798h7.492v2.164h-7.492v1.85h9.721v-5.82h-7.514v-2.141l3.656.022c1.941.022 4.818.268 6.201.447v-1.808c-1.449-.199-4.526-.423-7.047-.467m-9.535 2.631v-6.312h-2.23V0h2.23v-6.288h2.742v-1.896zm-13.737-10.994v5.776h2.207v-3.904h12.199v-1.872zm7.939 11.105h-2.208c.044.156.669 2.922.803 5.108h-8.587v1.872h10.995c-.044-1.382-.424-5.284-1.003-6.98m-8.72-3.858h-2.586v1.874h3.835v4.283h2.23v-4.283c1.561 0 6.178.29 8.05.578v-1.827c-2.787-.335-6.623-.625-11.529-.625" style="fill:#333132;fill-opacity:1;fill-rule:nonzero;stroke:none" transform="matrix(.35278 0 0 -.35278 218.507 11.564)"/><path d="m0 0 .025 11.958h-3.531v1.778a6.245 6.245 0 0 1 1.534.232c.487.137.926.345 1.315.621.293.211.551.522.78.936.227.414.356.849.389 1.303h1.705L2.192 0Z" style="fill:#232323;fill-opacity:1;fill-rule:nonzero;stroke:none" transform="matrix(.35278 0 0 -.35278 202.679 8.592)"/><path d="M0 0c.876-.999 1.315-2.181 1.315-3.543 0-1.349-.381-2.436-1.144-3.265-.764-.827-1.502-1.484-2.217-1.971l-2.727-1.875c-.439-.31-.918-.74-1.436-1.291-.521-.553-.869-1.146-1.049-1.778l8.5-.025v-1.899l-11.154.048a8.3 8.3 0 0 0 .779 3.373c.503 1.096 1.543 2.197 3.117 3.3l2.752 1.948a6.28 6.28 0 0 1 1.523 1.51c.398.569.597 1.201.597 1.901 0 .957-.244 1.708-.732 2.252-.487.543-1.233.816-2.24.816-1.202 0-2.03-.35-2.484-1.048a4.45 4.45 0 0 1-.731-2.289h-2.094c.032 1.396.475 2.635 1.327 3.714.853 1.079 2.195 1.62 4.031 1.62C-2.233 1.498-.876.998 0 0" style="fill:#232323;fill-opacity:1;fill-rule:nonzero;stroke:none" transform="matrix(.35278 0 0 -.35278 208.71 3.02)"/><path d="M0 0c31.724 0 57.441 25.716 57.441 57.438 0 31.721-25.717 57.439-57.441 57.439-31.721 0-57.438-25.718-57.438-57.439C-57.438 25.716-31.721 0 0 0" style="fill:#f0a435;fill-opacity:1;fill-rule:nonzero;stroke:none" transform="matrix(.35278 0 0 -.35278 147.827 45.364)"/><path d="M543.463 520.713h2.164v-19.625h-2.164zm-4.15-18.732v10.012h-3.12V514h3.12v6.268h2.166v-18.287zm-2.786 2.876c-1.427 1.116-3.478 3.657-3.946 5.42-.492-1.852-2.32-4.392-4.126-5.93l-1.807 1.334c3.458 2.253 4.773 6.068 4.773 10.15v3.299h2.34v-3.299c0-4.017 1.36-7.341 4.349-9.568z" style="fill:#333132;fill-opacity:1;fill-rule:nonzero;stroke:none" transform="matrix(.35278 0 0 -.35278 -37.203 201.836)"/><path d="M0 0v-8.092h3.011v-1.987H0v-9.543h-2.23V0Zm-14.875-16.212-1.672 1.316c5.863 2.633 7.984 7.827 8.229 10.815h-7.046v1.876h9.612c-.023-4.641-2.923-11.151-9.123-14.007m-5.632 9.346v-4.751h-2.229V0h2.229v-4.926h2.787v-1.94zm-2.229-7.562h-9.321v-3.1h9.321zm-11.553 1.872h13.782V-19.4h-13.782zm3.013 1.743-5.019-.045v5.797h7.493v2.162h-7.493v1.853h9.723v-5.82h-7.516v-2.142l3.656.023c1.943.021 4.819.267 6.202.445v-1.807c-1.449-.2-4.527-.423-7.046-.466m-9.537 2.63v-6.311h-2.23V0h2.23v-6.287h2.744v-1.896ZM-54.55-19.178v5.776h2.207v-3.903h12.199v-1.873zm7.939 11.107h-2.207c.044.156.668 2.922.803 5.105h-8.588v1.875h10.996c-.044-1.382-.423-5.285-1.004-6.98m-8.72-3.859h-2.585v1.872h3.835v4.283h2.23v-4.283c1.561 0 6.178.289 8.05.582v-1.832c-2.788-.332-6.624-.622-11.53-.622" style="fill:#333132;fill-opacity:1;fill-rule:nonzero;stroke:none" transform="matrix(.35278 0 0 -.35278 157.597 27.434)"/><path d="m0 0 .024 11.957h-3.53v1.778a6.333 6.333 0 0 1 1.533.232c.488.137.926.345 1.316.621.292.211.553.523.779.937.228.414.357.849.39 1.304h1.704L2.192 0Z" style="fill:#232323;fill-opacity:1;fill-rule:nonzero;stroke:none" transform="matrix(.35278 0 0 -.35278 141.769 24.24)"/><path d="M0 0c1.169-.859 1.754-2.321 1.754-4.382 0-1.867-.593-3.305-1.778-4.31-1.185-1.007-2.468-1.51-3.848-1.51-1.705 0-3.036.49-3.995 1.473-.957.982-1.526 2.089-1.703 3.324h2.143c.097-.715.45-1.36 1.059-1.937.608-.576 1.407-.863 2.397-.863.959 0 1.742.356 2.352 1.07.608.715.914 1.615.914 2.704 0 1.054-.285 1.956-.854 2.703-.567.747-1.355 1.12-2.362 1.12-.778 0-1.424-.13-1.936-.389a3.4 3.4 0 0 1-1.23-1.024l-2.07.025 1.315 8.841h8.938V4.799h-7.013L-6.6.61a4.917 4.917 0 0 0 1.668.659 7.188 7.188 0 0 0 1.743.121C-2.233 1.324-1.17.861 0 0" style="fill:#232323;fill-opacity:1;fill-rule:nonzero;stroke:none" transform="matrix(.35278 0 0 -.35278 147.723 20.796)"/></svg>