<svg xmlns="http://www.w3.org/2000/svg" width="250" height="250" version="1.0"><path d="M110.37 241.703c-27.132-3.396-50.69-15.361-70.214-35.663C18.377 183.393 7.958 157.41 7.958 125.75c0-33.378 12.01-61.277 36.382-84.518C66.797 19.82 92.851 9.46 124.25 9.46c31.397 0 57.452 10.36 79.908 31.773 24.373 23.241 36.383 51.14 36.383 84.518 0 33.379-12.01 61.277-36.383 84.518-16.43 15.667-34.873 25.296-57.34 29.936-9.375 1.937-27.118 2.666-36.448 1.498z" style="fill:#ffcb00;fill-opacity:1;stroke:#fff;stroke-width:6;stroke-opacity:1"/><path d="M209.28 181.17h17.642l-26.04-81.481c-1.026-3.267-2.542-5.18-4.549-5.74-2.006-.56-3.104-.84-3.292-.84h-11.758c-.094 0-1.26.28-3.5.84-2.241.56-3.874 2.52-4.9 5.881l-26.459 81.34h17.637l6.161-20.3h32.902l6.157 20.3zm-34.576-34.86 10.638-35.56h2.662l10.78 35.56h-24.08zm73.187 18.76V93.11H230.81v78.121c0 2.985.84 5.388 2.52 7.208 1.681 1.82 3.921 2.73 6.721 2.73h44.801V165.07h-36.96zm64.805 0V93.11h-17.082v78.121c0 2.985.84 5.388 2.521 7.208 1.68 1.82 3.92 2.73 6.72 2.73h44.802V165.07h-36.961z" style="font-size:150px;font-style:normal;font-variant:normal;font-weight:700;font-stretch:normal;writing-mode:lr-tb;text-anchor:start;fill:#000;fill-opacity:1;stroke:none;stroke-width:1px;stroke-linecap:butt;stroke-linejoin:miter;stroke-opacity:1;font-family:UnDotum" transform="translate(-122.359 -10.444)"/></svg>